<?xml version="1.0" encoding="UTF-8" standalone="no"?>
<!-- Created with Inkscape (http://www.inkscape.org/) -->

<svg
   width="11.071443mm"
   height="11.071443mm"
   viewBox="0 0 11.071443 11.071443"
   version="1.1"
   id="svg20583"
   inkscape:version="1.2.2 (b0a8486541, 2022-12-01)"
   sodipodi:docname="GalA.svg"
   xmlns:inkscape="http://www.inkscape.org/namespaces/inkscape"
   xmlns:sodipodi="http://sodipodi.sourceforge.net/DTD/sodipodi-0.dtd"
   xmlns="http://www.w3.org/2000/svg"
   xmlns:svg="http://www.w3.org/2000/svg">
  <sodipodi:namedview
     id="namedview20585"
     pagecolor="#ffffff"
     bordercolor="#000000"
     borderopacity="0.25"
     inkscape:showpageshadow="2"
     inkscape:pageopacity="0.0"
     inkscape:pagecheckerboard="0"
     inkscape:deskcolor="#d1d1d1"
     inkscape:document-units="mm"
     showgrid="false"
     inkscape:zoom="11.313709"
     inkscape:cx="13.611806"
     inkscape:cy="13.12567"
     inkscape:window-width="1920"
     inkscape:window-height="1012"
     inkscape:window-x="0"
     inkscape:window-y="0"
     inkscape:window-maximized="1"
     inkscape:current-layer="layer1"
     showguides="false" />
  <defs
     id="defs20580" />
  <g
     inkscape:label="Layer 1"
     inkscape:groupmode="layer"
     id="layer1"
     transform="translate(-494.46301,-701.46929)">
    <g
       id="g78105"
       transform="matrix(0.70785158,-0.70785158,0.64868461,0.64868461,-312.54708,602.31078)"
       style="fill:#fdd303;fill-opacity:1">
      <path
         id="path4274-3"
         style="fill:#fdd303;fill-opacity:1;fill-rule:nonzero;stroke:#000000;stroke-width:0.502;stroke-linecap:butt;stroke-linejoin:miter;stroke-miterlimit:4;stroke-dasharray:none;stroke-opacity:1"
         d="m 496.32247,703.00409 h 7.35506 v 7.99182 h -7.35506 z" />
      <path
         style="fill:#fdd303;fill-opacity:1;stroke-width:0.501999;stroke-dasharray:none"
         d="m 496.12776,702.80938 7.66517,8.31609"
         id="path54986" />
      <path
         style="fill:#fdd303;fill-opacity:1;stroke:#000000;stroke-width:0.501999;stroke-dasharray:none;stroke-opacity:1"
         d="m 496.35773,703.01012 7.39569,8.07565 v 0"
         id="path54990"
         sodipodi:nodetypes="ccc" />
      <path
         style="fill:#fdd303;fill-opacity:1;stroke:none;stroke-width:0.237165;stroke-dasharray:none;stroke-opacity:1"
         d="M 1.9375,16.783334 1.9023437,3.2736979 2.4096232,3.8341145 C 2.8361506,4.3053205 25.758351,29.319661 26.183437,29.786857 L 26.562185,30.203125 14.144373,30.125 1.8984375,30.210938 Z"
         id="path56719"
         transform="matrix(0.26458333,0,0,0.26458333,496.07165,702.75327)"
         sodipodi:nodetypes="ccsscccc" />
    </g>
    <path
       style="fill:#ffffff;stroke-width:0"
       d="m 12.250021,30.50002 -8.6873525,-8.687521 17.3749145,0.0017 17.374915,0.0017 -5.823567,5.795188 c -3.202962,3.187353 -7.098275,7.088937 -8.65625,8.670187 -1.557975,1.58125 -2.846773,2.882041 -2.863995,2.890647 -0.01722,0.0086 -3.940622,-3.893739 -8.718665,-8.671875 z"
       id="path78176"
       transform="matrix(0.26458333,0,0,0.26458333,494.46301,701.46929)" />
  </g>
</svg>
